<svg width="48" height="28" viewBox="0 0 48 28" fill="none" xmlns="http://www.w3.org/2000/svg">
<path d="M7.05165 0H1.80043C0.300086 0 0 0.69374 0 1.45873C0 2.82488 1.78029 9.60077 8.28927 18.5624C12.6286 24.6824 18.7424 28 24.3057 28C27.6435 28 28.0566 27.2632 28.0566 25.994V21.3684C28.0566 19.8947 28.3727 19.6006 29.4297 19.6006C30.2085 19.6006 31.5438 19.9832 34.6593 22.9339C38.2198 26.4311 38.8067 28 40.8095 28H46.0608C47.5611 28 48.3113 27.2632 47.8784 25.8091C47.4049 24.3599 45.7049 22.2571 43.4492 19.7646C42.2253 18.3438 40.3894 16.8139 39.8331 16.0487C39.0543 15.0652 39.2768 14.628 39.8331 13.7537L39.9266 13.6236C40.7179 12.5189 46.2786 4.68667 46.8985 1.89598C47.2322 0.803075 46.8985 0 45.3106 0H40.0594C38.7241 0 38.1086 0.69374 37.7746 1.45873C37.7746 1.45873 35.1043 7.85214 31.3212 12.0051C30.0974 13.2072 29.541 13.5897 28.8734 13.5897C28.5397 13.5897 28.0564 13.2072 28.0564 12.1144V1.89598C28.0564 0.584494 27.6689 0 26.5562 0H18.3043C17.4698 0 16.9681 0.608691 16.9681 1.18557C16.9681 2.42882 18.8594 2.71554 19.0545 6.21283V13.8084C19.0545 15.4737 18.7483 15.7756 18.0806 15.7756C16.3005 15.7756 11.9701 9.35364 9.40186 2.00523C8.89853 0.576946 8.39371 0 7.05165 0Z" fill="#F0F0F3"/>
</svg>
